<svg height='100px' width='100px'  fill="#000000" xmlns="http://www.w3.org/2000/svg" xmlns:xlink="http://www.w3.org/1999/xlink" version="1.1" x="0px" y="0px" viewBox="0 0 100 100" style="enable-background:new 0 0 100 100;" xml:space="preserve"><path d="M50.122,59.958c0-1.104-0.896-2-2-2s-2,0.896-2,2v4.5c0,1.104,0.896,2,2,2s2-0.896,2-2V59.958z"></path><path d="M59.757,59.958c0-1.104-0.896-2-2-2s-2,0.896-2,2v4.5c0,1.104,0.896,2,2,2s2-0.896,2-2V59.958z"></path><path d="M65.392,59.958v4.5c0,1.104,0.896,2,2,2s2-0.896,2-2v-4.5c0-1.104-0.896-2-2-2S65.392,58.854,65.392,59.958z"></path><path d="M51.939,70.242c-1.104,0-2,0.896-2,2v4.5c0,1.104,0.896,2,2,2s2-0.896,2-2v-4.5C53.939,71.137,53.044,70.242,51.939,70.242z  "></path><path d="M61.575,70.242c-1.104,0-2,0.896-2,2v4.5c0,1.104,0.896,2,2,2s2-0.896,2-2v-4.5C63.575,71.137,62.679,70.242,61.575,70.242z  "></path><path d="M78.249,19.341c0.064-0.127,0.129-0.247,0.192-0.377c2.135-4.404,2.94-9.047,2.152-12.419  c-0.174-0.744-0.757-1.325-1.502-1.495c-0.744-0.168-1.522,0.099-2.002,0.694c-1.063,1.318-2.404,2.59-3.881,3.683  c-2.921,2.176-6.193,3.518-8.698,3.627c-4.272-2.921-9.262-4.477-14.506-4.477c-5.23,0-10.225,1.557-14.52,4.479  c-2.521-0.093-5.773-1.455-8.698-3.634c-1.472-1.088-2.812-2.36-3.875-3.678c-0.479-0.595-1.256-0.863-2.002-0.694  c-0.745,0.17-1.328,0.75-1.502,1.495c-0.788,3.372,0.017,8.015,2.151,12.415c0.065,0.135,0.132,0.258,0.197,0.388  c-4.051,3.385-6.636,8.47-6.636,14.15c0,6.708,3.612,12.573,8.981,15.8V91c-1.104,0-2,0.896-2,2s0.896,2,2,2h2h14.35h25.369  c1.104,0,2-0.896,2-2s-0.896-2-2-2h-9.041C68.128,85.083,75.9,73.211,75.9,59.55V49.298c5.37-3.227,8.981-9.092,8.981-15.8  C84.881,27.999,82.429,22.833,78.249,19.341z M75.591,12.64c0.361-0.267,0.716-0.544,1.063-0.829  c-0.308,1.689-0.911,3.518-1.767,5.304c-1.359-0.701-2.79-1.236-4.273-1.578C72.296,14.8,73.991,13.831,75.591,12.64z M61.378,15.77  c-5.035,1.43-9.104,4.912-11.381,9.415c-2.302-4.534-6.415-7.987-11.388-9.407c3.424-2.098,7.328-3.201,11.395-3.201  C54.079,12.578,57.974,13.678,61.378,15.77z M50.001,41.802c0.662,1.305,1.467,2.523,2.408,3.628L50,48.879l-2.408-3.446  C48.533,44.327,49.339,43.109,50.001,41.802z M23.345,11.811c0.345,0.284,0.698,0.559,1.057,0.825  c1.61,1.199,3.312,2.175,4.999,2.913c-1.508,0.349-2.944,0.88-4.286,1.575C24.258,15.335,23.654,13.502,23.345,11.811z   M19.119,33.499c0-7.958,6.471-14.432,14.427-14.44c0.028,0.001,0.056,0.008,0.084,0.008c0.012,0,0.024-0.003,0.036-0.003  C41.578,19.122,48,25.572,48,33.499c0,7.962-6.478,14.44-14.44,14.44S19.119,41.461,19.119,33.499z M71.9,59.55  C71.9,76.892,57.792,91,40.45,91h-4.294c1.542-1.358,2.937-3.032,4.123-5.004c0.569-0.947,0.263-2.176-0.683-2.745  c-0.948-0.571-2.176-0.264-2.745,0.683c-2.26,3.758-5.374,6.168-8.751,6.856V51.594c6.817,1.374,12.08,9.621,12.08,19.586  c0,2.772-0.403,5.455-1.197,7.973c-0.333,1.054,0.252,2.177,1.306,2.509c0.2,0.063,0.403,0.093,0.602,0.093  c0.85,0,1.638-0.546,1.907-1.399c0.917-2.908,1.382-5.996,1.382-9.176c0-8.054-3.055-15.182-7.717-19.493  c3.039-0.484,5.827-1.707,8.182-3.488l3.715,5.317c0.375,0.536,0.986,0.854,1.64,0.854s1.265-0.319,1.64-0.854l3.716-5.319  c3.09,2.337,6.923,3.74,11.087,3.74c1.899,0,3.732-0.29,5.458-0.825V59.55z M66.442,47.938c-7.962,0-14.439-6.478-14.439-14.439  c0-6.962,4.96-12.932,11.797-14.195c0.797-0.148,1.622-0.225,2.508-0.238c0.017,0,0.033,0.005,0.049,0.005  c0.036,0,0.071-0.008,0.107-0.01c2.897,0.005,5.693,0.863,8.084,2.484c3.965,2.699,6.332,7.168,6.332,11.955  C80.881,41.46,74.404,47.938,66.442,47.938z"></path><path d="M42.213,33.499h-4c0,2.566-2.088,4.654-4.654,4.654s-4.654-2.088-4.654-4.654h-4c0,4.772,3.882,8.654,8.654,8.654  S42.213,38.271,42.213,33.499z"></path><path d="M66.354,38.153c-2.566,0-4.654-2.088-4.654-4.654h-4c0,4.772,3.882,8.654,8.654,8.654s8.654-3.882,8.654-8.654h-4  C71.008,36.065,68.92,38.153,66.354,38.153z"></path></svg>